<?xml version="1.0" encoding="utf-8"?>
<!-- Generator: Adobe Illustrator 19.0.0, SVG Export Plug-In . SVG Version: 6.00 Build 0)  -->
<svg version="1.1" id="Layer_1" xmlns="http://www.w3.org/2000/svg" xmlns:xlink="http://www.w3.org/1999/xlink" x="0px" y="0px"
	 viewBox="0 0 2304 2304" style="enable-background:new 0 0 2304 2304;" xml:space="preserve">
<style type="text/css">
	.st0{fill:#070808;}
</style>
<g id="XMLID_6_">
	<path id="XMLID_7_" class="st0" d="M515.1,1712.3c29.7,209.4,210.1,371.1,427.6,371.1c196.4,0,375.4-134.1,421.2-333.9h-235
		c-43.6,77.5-112.5,114.2-188.3,114.4c-117.3,0.3-212.5-95.1-212.5-212.5c0-117.3,95.1-212.5,212.5-212.5
		c83,0,154.8,47.6,189.7,116.9h233.7v527.5h246.2v-430.1h3.3l294.1,430h310.5l-350.2-464.5l351.9-399.4h-302.6l-307,355.1V742.9
		h-246.2v812.8c-43.6-192.4-216-336.5-421.3-336.5c-217.5,0-397.9,161.6-427.6,371.1 M-849.7,2597.3 M-994.8,2567.4"/>
</g>
<g id="XMLID_9_">
	<path id="XMLID_13_" class="st0" d="M1609.1,570.1V199h-244.7l0,60.2V276c-8.4-5.9-16.9-11.5-25.7-16.8
		c-65.2-39.3-141.5-61.9-223.1-61.9c-39,0-76.8,5.2-112.8,14.9c-68.4,16.7-130.7,49-182.3,95c-6.6,5.9-13.1,12-19.4,18.4
		c-37,37.4-65.8,78.8-86.2,124.4c-11.1,23.9-20.1,49-26.8,75c-6.3,24.7-10.4,50.1-12.2,76.3v-95.2v-307H431.2v946.1
		c0,103.1-83.9,187.1-187,187.1c-33.4-0.4-72.9-1.6-72.9-1.6s0.3-0.9-72.3,216.3c59.6,24.3,145.1,30,145.1,30
		c221.6-0.1,406.3-168.9,428.9-383.1c4.3-41,2.8-205.1,2.8-205.1V751.6v-91.7c1.8,26.2,5.9,51.7,12.2,76.4
		C713.8,837.5,775.5,924.4,859,983c49.2,35.7,104.6,60.3,166.6,71.8c27.2,5.4,55.3,8.2,84.1,8.2c2.2,0,4.4-0.1,6.5-0.1
		c2.2,0,4.4,0,6.5-0.1c0.3,0,0.6,0,0.9,0c78.5-1.5,152-23.8,215-61.8c8.8-5.3,17.3-10.9,25.6-16.8v28.3h0l0,49.9v0.5l244.7,0V692
		 M1115.5,844.4c-117.3,0-212.4-95.1-212.4-212.4c0-117.3,95.1-212.4,212.4-212.4s212.4,95.1,212.4,212.4S1232.8,844.4,1115.5,844.4
		z"/>
</g>
</svg>
