<?xml version="1.0" encoding="utf-8"?>
<!-- Generator: Adobe Illustrator 19.0.0, SVG Export Plug-In . SVG Version: 6.00 Build 0)  -->
<svg version="1.1" id="Layer_1" xmlns="http://www.w3.org/2000/svg" xmlns:xlink="http://www.w3.org/1999/xlink" x="0px" y="0px"
	 viewBox="0 0 96 96" style="enable-background:new 0 0 96 96;" xml:space="preserve">
<style type="text/css">
	.st0{fill:#333333;}
</style>
<g id="XMLID_2_">
	<path id="XMLID_8_" class="st0" d="M68,38h-7.5V28h-35c-2.8,0-5,2.2-5,5v27.5h5c0,4.1,3.4,7.5,7.5,7.5s7.5-3.4,7.5-7.5h15
		c0,4.1,3.4,7.5,7.5,7.5s7.5-3.4,7.5-7.5h5V48L68,38z M33,64.3c-2.1,0-3.8-1.7-3.8-3.8s1.7-3.8,3.8-3.8s3.8,1.7,3.8,3.8
		S35.1,64.3,33,64.3z M66.8,41.8l4.9,6.3H60.5v-6.3H66.8z M63,64.3c-2.1,0-3.8-1.7-3.8-3.8s1.7-3.8,3.8-3.8s3.8,1.7,3.8,3.8
		S65.1,64.3,63,64.3z"/>
</g>
</svg>
